<svg width="44" height="44" viewBox="0 0 44 44" xmlns="http://www.w3.org/2000/svg" xmlns:xlink="http://www.w3.org/1999/xlink"><title>ic_chat</title><defs><path id="b" d="M0 0h48v48H0z"/><path d="M37.056 6.432C32.95 2.328 27.506.07 21.703.07 15.9.069 10.455 2.328 6.35 6.432c-7.933 7.933-8.484 20.632-1.368 29.199-.698 1.405-1.818 3.04-3.48 3.857a2.02 2.02 0 0 0-1.11 2.13c.137.881.817 1.57 1.698 1.707.413.065 1 .13 1.717.13 1.92 0 4.747-.451 7.64-2.535a21.596 21.596 0 0 0 10.247 2.58c5.62 0 11.183-2.176 15.37-6.363 4.105-4.105 6.364-9.55 6.364-15.353 0-5.803-2.268-11.248-6.372-15.352z" id="a"/><mask id="d" x="0" y="0" width="43.428" height="43.431" fill="#fff"><use xlink:href="#a"/></mask></defs><g transform="translate(-2 -2)" fill="none" fill-rule="evenodd"><mask id="c" fill="#fff"><use xlink:href="#b"/></mask><g transform="translate(2 2)" mask="url(#c)" stroke="#4D5FA9"><use mask="url(#d)" stroke-width="8" xlink:href="#a"/><path d="M23.227 21.784a1.524 1.524 0 1 1-3.048 0 1.524 1.524 0 0 1 3.048 0z" stroke-width="2" fill="#4D5FA9" opacity=".6"/><path d="M31.087 21.784a1.525 1.525 0 1 1-3.049 0 1.525 1.525 0 0 1 3.05 0z" stroke-width="2" fill="#4D5FA9" opacity=".8"/><path d="M15.367 21.784a1.524 1.524 0 1 1-3.048 0 1.524 1.524 0 0 1 3.048 0z" stroke-width="2" fill="#4D5FA9" opacity=".4"/></g></g></svg>