<svg width="44" height="44" viewBox="0 0 44 44" xmlns="http://www.w3.org/2000/svg" xmlns:xlink="http://www.w3.org/1999/xlink"><title>ic_explore</title><defs><path id="b" d="M0 0v48h48V0H0z"/><path d="M23 1C10.869 1 1 10.869 1 23c0 12.13 9.869 22 22 22 12.13 0 22-9.87 22-22 0-12.131-9.87-22-22-22z" id="a"/><mask id="d" x="0" y="0" width="44" height="44" fill="#fff"><use xlink:href="#a"/></mask></defs><g transform="translate(-2 -2)" fill="none" fill-rule="evenodd"><mask id="c" fill="#fff"><use xlink:href="#b"/></mask><g transform="translate(1 1)" mask="url(#c)"><use stroke="#4D5FA9" mask="url(#d)" stroke-width="8" xlink:href="#a"/><g stroke-linecap="round" stroke-linejoin="round" stroke="#A6AFD4"><path d="M32.321 12.136l-12.826 6.897a1.137 1.137 0 0 0-.465.464l-6.894 12.824a1.14 1.14 0 0 0 1.524 1.554l12.852-6.902a1.14 1.14 0 0 0 .464-.464l6.867-12.793a1.139 1.139 0 0 0-1.522-1.58z" stroke-width="4"/><path d="M20.5 20.5l5 5" stroke-width="3"/></g></g></g></svg>