<svg width="44" height="40" viewBox="0 0 44 40" xmlns="http://www.w3.org/2000/svg" xmlns:xlink="http://www.w3.org/1999/xlink"><title>ic_email</title><defs><path id="a" d="M0 0v47.783h47.783V0H0z"/></defs><g transform="translate(-2 -4)" fill="none" fill-rule="evenodd"><mask id="b" fill="#fff"><use xlink:href="#a"/></mask><g stroke-width="4" mask="url(#b)" stroke-linecap="round" stroke-linejoin="round"><path d="M17.55 24.5L6 38.305M30.5 24.5l11.55 13.805" stroke="#A6AFD4"/><path stroke="#4D5FA9" d="M4 13.5l20 14 20-14"/><path d="M4.034 40.595c0 .036 0 .07.035.142 0 .036.034.107.034.142 0 .036.035.07.035.141.034.035.034.071.07.142.033.034.033.07.069.106.033.036.069.07.069.107l.138.141s.034 0 .034.035a.814.814 0 0 0 .38.213c.035 0 .035 0 .068.036.139.035.277.071.415.071h37.271c.139 0 .277-.036.415-.07.034 0 .034 0 .07-.037.138-.07.276-.142.379-.213 0 0 .035 0 .035-.035l.034-.036.105-.105c.033-.036.067-.071.067-.107.035-.035.035-.072.069-.106.035-.036.035-.07.07-.142.034-.034.034-.07.034-.141 0-.035.035-.106.035-.142 0-.035.035-.071.035-.142V7.952c0-.814-.623-1.452-1.417-1.452H5.417C4.622 6.5 4 7.138 4 7.952v32.501c.034.037.034.071.034.142z" stroke="#4D5FA9"/></g></g></svg>