<svg width="44" height="44" viewBox="0 0 44 44" xmlns="http://www.w3.org/2000/svg" xmlns:xlink="http://www.w3.org/1999/xlink"><title>ic_emoji</title><defs><path id="b" d="M0 0h48v48H0z"/><circle id="a" cx="22" cy="22" r="22"/><mask id="d" x="0" y="0" width="44" height="44" fill="#fff"><use xlink:href="#a"/></mask></defs><g transform="translate(-2 -2)" fill="none" fill-rule="evenodd"><mask id="c" fill="#fff"><use xlink:href="#b"/></mask><g transform="translate(2 2)" mask="url(#c)" stroke="#4D5FA9"><use mask="url(#d)" stroke-width="8" xlink:href="#a"/><path d="M8.92 27c2.012 5.263 7.11 9 13.08 9 5.976 0 11.078-3.745 13.087-9.016" stroke-width="4" stroke-linecap="round" opacity=".5"/><path d="M18.5 19.502a2.5 2.5 0 1 1-5.001-.006 2.5 2.5 0 0 1 5.001.006M30.5 19.502A2.499 2.499 0 0 1 28 22c-1.378 0-2.5-1.12-2.5-2.498a2.499 2.499 0 1 1 5 0" fill="#4D5FA9" opacity=".5"/></g></g></svg>