<svg width="46" height="32" viewBox="0 0 46 32" xmlns="http://www.w3.org/2000/svg" xmlns:xlink="http://www.w3.org/1999/xlink"><title>ic_eye</title><defs><path id="a" d="M0 0h48v48H0z"/></defs><g transform="translate(-1 -8)" fill="none" fill-rule="evenodd"><mask id="b" fill="#fff"><use xlink:href="#a"/></mask><g stroke-width="4" mask="url(#b)" stroke="#4D5FA9"><path d="M44.44 23.395c-.075-.348-1.383-3.579-4.53-6.772-2.923-2.965-8.1-6.499-16.174-6.499-8.073 0-13.252 3.534-16.174 6.5a22.792 22.792 0 0 0-3.415 4.46c-.297.508-.562 1.01-.786 1.489-.307.656-.361.824-.361 1.12 0 .297.054.464.361 1.12.224.48.489.981.786 1.49a22.824 22.824 0 0 0 3.415 4.46c2.922 2.965 8.1 6.5 16.174 6.5 8.073 0 13.251-3.535 16.174-6.5a22.842 22.842 0 0 0 3.416-4.46c.296-.509.56-1.01.785-1.49.307-.656.361-.823.361-1.12 0-.1-.01-.2-.032-.298z"/><path d="M23.736 31.113a7.42 7.42 0 1 1 0-14.841 7.42 7.42 0 0 1 0 14.841z" opacity=".5"/></g></g></svg>