<svg width="44" height="46" viewBox="0 0 44 46" xmlns="http://www.w3.org/2000/svg" xmlns:xlink="http://www.w3.org/1999/xlink"><title>ic_edit</title><defs><path id="b" d="M0 0h48v48H0z"/><path d="M.038 28.245L0 35.922c0 .432.157.865.473 1.18.315.316.707.473 1.142.473l7.637-.038c.432 0 .826-.158 1.141-.473l26.375-26.377c.63-.628.63-1.652 0-2.322L29.209.73c-.63-.63-1.653-.63-2.321 0l-5.275 5.315L.511 27.104c-.275.314-.473.708-.473 1.14z" id="a"/><mask id="d" x="0" y="0" width="37.24" height="37.319" fill="#fff"><use xlink:href="#a"/></mask></defs><g transform="translate(-2 -2)" fill="none" fill-rule="evenodd"><mask id="c" fill="#fff"><use xlink:href="#b"/></mask><g transform="translate(2 2)" mask="url(#c)"><path d="M2.1 43.05H42M23.1 7.875l5.94 5.94" stroke="#A6AFD4" stroke-width="4" stroke-linecap="round" stroke-linejoin="round"/><use stroke="#4D5FA9" mask="url(#d)" stroke-width="8" xlink:href="#a"/></g></g></svg>