<svg width="44" height="38" viewBox="0 0 44 38" xmlns="http://www.w3.org/2000/svg" xmlns:xlink="http://www.w3.org/1999/xlink"><title>ic_group</title><defs><path id="b" d="M.245 47.755H48V0H.245z"/><path d="M14 18a7 7 0 1 0 0-14 7 7 0 0 0 0 14z" id="a"/><mask id="d" x="-6" y="-6" width="26" height="26"><path fill="#fff" d="M1-2h26v26H1z"/><use xlink:href="#a"/></mask></defs><g transform="translate(-2 -5)" fill="none" fill-rule="evenodd"><mask id="c" fill="#fff"><use xlink:href="#b"/></mask><g transform="translate(4 7)" mask="url(#c)"><g stroke-linecap="round" stroke-linejoin="round" stroke="#A6AFD4" stroke-width="4"><path d="M28 12a6 6 0 1 0 0-12 6 6 0 0 0 0 12zM16 25.725s.429-12.01 12-12.01 12 12.01 12 12.01"/></g><use stroke="#FFF" mask="url(#d)" stroke-width="12" xlink:href="#a"/><g stroke="#4D5FA9" stroke-width="4"><path d="M14 18a7 7 0 1 0 0-14 7 7 0 0 0 0 14z"/><path d="M28 34c0-7.732-6.268-14-14-14S0 26.268 0 34" stroke-linecap="round" fill="#FFF"/></g></g></g></svg>