<svg width="44" height="41" viewBox="0 0 44 41" xmlns="http://www.w3.org/2000/svg" xmlns:xlink="http://www.w3.org/1999/xlink"><title>ic_heart</title><defs><path id="a" d="M0 47.919h47.919V0H0z"/></defs><g transform="translate(-2 -4)" fill="none" fill-rule="evenodd"><mask id="b" fill="#fff"><use xlink:href="#a"/></mask><path d="M28.385.137c-3.333 0-6.335 1.484-8.437 3.855C17.846 1.622 14.844.137 11.51.137 5.153.137 0 5.53 0 12.186c0 1.788.302 3.508.83 5.151 0 0 .48 1.483.904 2.299 4.851 10.434 18.214 17.2 18.214 17.2s13.362-6.766 18.214-17.2c0 0 .626-1.39.903-2.299.505-1.65.83-3.363.83-5.151 0-6.655-5.153-12.05-11.51-12.05z" transform="translate(4 6)" stroke-width="4" mask="url(#b)" stroke-linecap="round" stroke="#4D5FA9" stroke-linejoin="round"/></g></svg>