<svg width="42" height="43" viewBox="0 0 42 43" xmlns="http://www.w3.org/2000/svg" xmlns:xlink="http://www.w3.org/1999/xlink"><title>ic_profile</title><defs><path id="c" d="M0 0v47.783h47.783V0H0z"/><path d="M2.111 31.667C5.97 36.897 12.057 40.11 19 40.11c6.867 0 13.042-3.321 16.889-8.444" id="a"/><mask id="e" x="0" y="0" width="33.778" height="8.444" fill="#fff"><use xlink:href="#a"/></mask><path d="M2.111 23.222c3.859 5.23 9.946 8.445 16.889 8.445 6.867 0 13.042-3.322 16.889-8.445" id="b"/><mask id="f" x="0" y="0" width="33.778" height="8.444" fill="#fff"><use xlink:href="#b"/></mask></defs><g transform="translate(-3 -2)" fill="none" fill-rule="evenodd"><mask id="d" fill="#fff"><use xlink:href="#c"/></mask><g transform="translate(5 4)" mask="url(#d)"><use stroke="#4D5FA9" mask="url(#e)" stroke-width="8" xlink:href="#a"/><use stroke="#4D5FA9" mask="url(#f)" stroke-width="8" transform="matrix(1 0 0 -1 0 54.889)" xlink:href="#b"/><path d="M19 23.222a6.333 6.333 0 1 0 0-12.666 6.333 6.333 0 0 0 0 12.666z" stroke="#4D5FA9" stroke-width="4"/><path d="M38 19c0-1.256-.122-2.484-.355-3.672C35.935 6.592 28.237 0 19 0 9.79 0 2.111 6.553.37 15.25A19.09 19.09 0 0 0 0 19" stroke="#A6AFD4" stroke-width="4" stroke-linecap="round" stroke-linejoin="round"/></g></g></svg>