<svg width="41" height="45" viewBox="0 0 41 45" xmlns="http://www.w3.org/2000/svg" xmlns:xlink="http://www.w3.org/1999/xlink"><title>ic_share</title><defs><path id="a" d="M0 0v48h48V0H0z"/></defs><g transform="translate(-3 -2)" fill="none" fill-rule="evenodd"><mask id="b" fill="#fff"><use xlink:href="#a"/></mask><g stroke-width="4" mask="url(#b)"><path d="M30.5 12.5l-14 8M16.5 26.5L31 36" stroke="#4D5FA9"/><path d="M36.22 44.052a5.343 5.343 0 0 1-5.337-5.338 5.343 5.343 0 0 1 5.338-5.338 5.343 5.343 0 0 1 5.338 5.338 5.343 5.343 0 0 1-5.338 5.338zM10.786 29.079a5.343 5.343 0 0 1-5.338-5.338 5.343 5.343 0 0 1 5.338-5.338 5.343 5.343 0 0 1 5.338 5.338 5.348 5.348 0 0 1-5.338 5.338zM36.22 4.448a5.343 5.343 0 0 1 5.34 5.338 5.343 5.343 0 0 1-5.34 5.338 5.342 5.342 0 0 1-5.337-5.338 5.348 5.348 0 0 1 5.338-5.338z" stroke="#A6AFD4" stroke-linecap="round" stroke-linejoin="round"/></g></g></svg>