<svg width="36" height="44" viewBox="0 0 36 44" xmlns="http://www.w3.org/2000/svg" xmlns:xlink="http://www.w3.org/1999/xlink"><title>ic_vocie</title><defs><path id="b" d="M0 0h48v48H0z"/><path d="M16 31.577c5.673 0 10.277-4.605 10.277-10.298V10.298C26.277 4.612 21.673 0 16 0 10.319 0 5.723 4.612 5.723 10.298v10.981c0 5.693 4.596 10.298 10.277 10.298z" id="a"/><mask id="d" x="0" y="0" width="20.554" height="31.577" fill="#fff"><use xlink:href="#a"/></mask></defs><g transform="translate(-6 -2)" fill="none" fill-rule="evenodd"><mask id="c" fill="#fff"><use xlink:href="#b"/></mask><g transform="translate(8 2)" mask="url(#c)" stroke="#4D5FA9"><use mask="url(#d)" stroke-width="8" opacity=".5" xlink:href="#a"/><path d="M32 21c0 8.842-7.179 16.038-15.995 16.038C7.18 37.038 0 29.842 0 21M16 38.5V42" stroke-width="4" stroke-linecap="round"/></g></g></svg>