<svg width="48" height="48" viewBox="0 0 48 48" xmlns="http://www.w3.org/2000/svg"><title>Logo</title><g fill="none" fill-rule="evenodd"><circle fill="#000" cx="24" cy="24" r="24"/><path d="M28.255 20.475l3.932-8.787a.18.18 0 0 1 .165-.107l2.961.002a.18.18 0 0 1 .165.254l-5.603 12.521a.18.18 0 0 0 .003.153l5.61 11.6a.18.18 0 0 1-.162.26l-2.953.007a.18.18 0 0 1-.163-.101L21.92 15.278a.18.18 0 0 1-.002-.153l1.49-3.31a.18.18 0 0 1 .328-.004l4.193 8.669a.18.18 0 0 0 .327-.005zm-8.495 7.01l-3.931 8.787a.18.18 0 0 1-.165.106l-2.961-.001a.18.18 0 0 1-.165-.255l5.602-12.521a.18.18 0 0 0-.002-.153l-5.611-11.6a.18.18 0 0 1 .162-.26l2.954-.007c.069 0 .132.04.162.101l10.292 20.999a.18.18 0 0 1 .002.154l-1.49 3.309a.18.18 0 0 1-.328.004l-4.193-8.669a.18.18 0 0 0-.328.005z" fill="#FFF"/></g></svg>