<?xml version="1.0" encoding="utf-8"?>
<!-- Generator: Adobe Illustrator 22.0.1, SVG Export Plug-In . SVG Version: 6.00 Build 0)  -->
<svg version="1.1" id="Layer_1" xmlns="http://www.w3.org/2000/svg" xmlns:xlink="http://www.w3.org/1999/xlink" x="0px" y="0px"
	 viewBox="0 0 48 48" style="enable-background:new 0 0 48 48;" xml:space="preserve">
<style type="text/css">
	.st0{opacity:0.85;enable-background:new    ;}
	.st1{fill:none;stroke:#000000;stroke-miterlimit:10;}
</style>
<title>Logo</title>
<path class="st0" d="M13.6,11L13.6,11c-1.9,0-3.5,1.6-3.5,3.5V36c0,1.9,1.6,3.5,3.5,3.5l0,0c1.9,0,3.5-1.6,3.5-3.5V14.5
	C17.1,12.6,15.5,11,13.6,11z"/>
<path class="st0" d="M34.4,11L34.4,11c-1.9,0-3.5,1.6-3.5,3.5v8.5c0,1.9,1.6,3.5,3.5,3.5l0,0c1.9,0,3.5-1.6,3.5-3.5v-8.5
	C37.9,12.6,36.3,11,34.4,11z"/>
<path class="st0" d="M27,6.7L27,6.7c-1-1.7-3.1-2.2-4.8-1.3l-10.4,6c-1.7,1-2.2,3.1-1.3,4.8l0,0c1,1.7,3.1,2.2,4.8,1.3l10.4-6
	C27.4,10.5,28,8.4,27,6.7z"/>
<path class="st0" d="M37.4,21.1L37.4,21.1c-1-1.7-3.1-2.2-4.8-1.3l-10.4,6c-1.7,1-2.2,3.1-1.3,4.8l0,0c1,1.7,3.1,2.2,4.8,1.3l10.4-6
	C37.8,24.9,38.4,22.7,37.4,21.1z"/>
<path class="st0" d="M21,6.7L21,6.7c1-1.7,3.1-2.2,4.8-1.3l10.4,6c1.7,1,2.2,3.1,1.3,4.8l0,0c-1,1.7-3.1,2.2-4.8,1.3l-10.4-6
	C20.6,10.5,20,8.4,21,6.7z"/>
<path class="st0" d="M21.1,26.7L21.1,26.7c1.1-1.5,3.4-1.9,4.9-0.7l9.7,7.2c1.5,1.1,1.9,3.4,0.7,4.9l0,0c-1.1,1.5-3.4,1.9-4.9,0.7
	l-9.7-7.2C20.3,30.5,20,28.3,21.1,26.7z"/>
<path class="st1" d="M-22.8-2.5"/>
</svg>
